<svg xmlns="http://www.w3.org/2000/svg" width="24" height="24" viewBox="0 0 24 24" fill="none" > <mask id="mask0_304_886" maskUnits="userSpaceOnUse" x="0" y="0" width="24" height="24" > <rect width="24" height="24" fill="#D9D9D9" /> </mask> <g mask="url(#mask0_304_886)"> <path d="M4 24C3.45 24 2.97917 23.8042 2.5875 23.4125C2.19583 23.0208 2 22.55 2 22C2 21.45 2.19583 20.9792 2.5875 20.5875C2.97917 20.1958 3.45 20 4 20H20C20.55 20 21.0208 20.1958 21.4125 20.5875C21.8042 20.9792 22 21.45 22 22C22 22.55 21.8042 23.0208 21.4125 23.4125C21.0208 23.8042 20.55 24 20 24H4ZM5 18C4.71667 18 4.47917 17.9042 4.2875 17.7125C4.09583 17.5208 4 17.2833 4 17V14.675C4 14.5417 4.025 14.4125 4.075 14.2875C4.125 14.1625 4.2 14.05 4.3 13.95L13.05 5.19999L16.8 8.94999L8.05 17.7C7.95 17.8 7.8375 17.875 7.7125 17.925C7.5875 17.975 7.45833 18 7.325 18H5ZM17.925 7.84999L14.175 4.09999L15.975 2.29999C16.1583 2.09999 16.3917 2.00416 16.675 2.01249C16.9583 2.02083 17.1917 2.11666 17.375 2.29999L19.725 4.64999C19.9083 4.83333 20 5.06249 20 5.33749C20 5.61249 19.9083 5.84999 19.725 6.04999L17.925 7.84999Z" fill="#020831" /> </g> </svg>
