<svg width="22" height="29" viewBox="0 0 22 29" fill="none" xmlns="http://www.w3.org/2000/svg">
<path fill-rule="evenodd" clip-rule="evenodd" d="M21.2283 18.7866C20.9932 24.4015 16.3687 28.8817 10.6962 28.8817C4.87315 28.8817 0.152717 24.0026 0.152717 18.3383C0.152717 17.5812 0.139145 16.0681 1.27436 13.5152C1.95374 11.9875 2.37985 11.0277 2.62033 10.1503C2.75246 9.66813 3.00943 8.90204 3.74197 10.1503C4.17392 10.8863 4.19063 11.9449 4.19063 11.9449C4.19063 11.9449 5.79772 10.7117 6.88257 8.35569C8.47295 4.90182 7.20403 2.83721 6.77041 1.40151C6.62033 0.904849 6.52611 0.0122458 7.55556 0.392034C8.60452 0.779112 11.3777 2.72034 12.8273 4.76644C14.8961 7.68663 15.6314 10.4868 15.6314 10.4868C15.6314 10.4868 16.2938 9.66465 16.5287 8.80435C16.794 7.83289 16.7979 6.87075 17.6502 7.90715C18.4608 8.89274 19.6647 10.7449 20.3423 12.5058C21.5726 15.7035 21.2283 18.7866 21.2283 18.7866Z" fill="url(#paint0_linear_258_56)"/>
<path fill-rule="evenodd" clip-rule="evenodd" d="M10.6959 28.8817C6.66936 28.8817 3.40527 25.6176 3.40527 21.591C3.40527 19.1614 4.38435 17.6864 6.42204 15.686C7.72674 14.4052 8.94787 12.8321 9.46685 11.761C9.56903 11.5501 9.80155 10.4512 10.6981 11.7379C11.1684 12.4126 11.9056 13.6127 12.3784 14.6368C13.1934 16.4026 13.3879 18.1139 13.3879 18.1139C13.3879 18.1139 14.1866 17.6433 14.7339 16.4315C14.9103 16.0409 15.267 14.5624 16.2641 16.0407C16.9958 17.1255 18.0009 19.0761 17.9866 21.591C17.9866 25.6176 14.7224 28.8817 10.6959 28.8817Z" fill="#FC9502"/>
<path fill-rule="evenodd" clip-rule="evenodd" d="M10.8084 20.918C11.8459 20.918 11.8459 22.8393 13.1638 25.4046C14.0414 27.1127 12.7287 28.8817 10.8084 28.8817C8.888 28.8817 7.89209 27.325 7.89209 25.4046C7.89209 23.4843 9.77084 20.918 10.8084 20.918Z" fill="#FCE202"/>
<defs>
<linearGradient id="paint0_linear_258_56" x1="10.712" y1="28.9028" x2="10.712" y2="0.322043" gradientUnits="userSpaceOnUse">
<stop stop-color="#FF4C0D"/>
<stop offset="1" stop-color="#FC9502"/>
</linearGradient>
</defs>
</svg>
