<svg xmlns="http://www.w3.org/2000/svg" width="24" height="24" viewBox="0 0 24 24" fill="none" > <mask id="mask0_30_2531" maskUnits="userSpaceOnUse" x="0" y="0" width="24" height="24" > <rect width="24" height="24" fill="#D9D9D9" /> </mask> <g mask="url(#mask0_30_2531)"> <path d="M12 20.675C11.7667 20.675 11.5292 20.6333 11.2875 20.55C11.0458 20.4667 10.8333 20.3333 10.65 20.15L8.925 18.575C7.15833 16.9583 5.5625 15.3542 4.1375 13.7625C2.7125 12.1708 2 10.4167 2 8.5C2 6.93333 2.525 5.625 3.575 4.575C4.625 3.525 5.93333 3 7.5 3C8.38333 3 9.21667 3.1875 10 3.5625C10.7833 3.9375 11.45 4.45 12 5.1C12.55 4.45 13.2167 3.9375 14 3.5625C14.7833 3.1875 15.6167 3 16.5 3C18.0667 3 19.375 3.525 20.425 4.575C21.475 5.625 22 6.93333 22 8.5C22 10.4167 21.2917 12.175 19.875 13.775C18.4583 15.375 16.85 16.9833 15.05 18.6L13.35 20.15C13.1667 20.3333 12.9542 20.4667 12.7125 20.55C12.4708 20.6333 12.2333 20.675 12 20.675ZM11.05 7.1C10.5667 6.41667 10.05 5.89583 9.5 5.5375C8.95 5.17917 8.28333 5 7.5 5C6.5 5 5.66667 5.33333 5 6C4.33333 6.66667 4 7.5 4 8.5C4 9.36667 4.30833 10.2875 4.925 11.2625C5.54167 12.2375 6.27917 13.1833 7.1375 14.1C7.99583 15.0167 8.87917 15.875 9.7875 16.675C10.6958 17.475 11.4333 18.1333 12 18.65C12.5667 18.1333 13.3042 17.475 14.2125 16.675C15.1208 15.875 16.0042 15.0167 16.8625 14.1C17.7208 13.1833 18.4583 12.2375 19.075 11.2625C19.6917 10.2875 20 9.36667 20 8.5C20 7.5 19.6667 6.66667 19 6C18.3333 5.33333 17.5 5 16.5 5C15.7167 5 15.05 5.17917 14.5 5.5375C13.95 5.89583 13.4333 6.41667 12.95 7.1C12.8333 7.26667 12.6917 7.39167 12.525 7.475C12.3583 7.55833 12.1833 7.6 12 7.6C11.8167 7.6 11.6417 7.55833 11.475 7.475C11.3083 7.39167 11.1667 7.26667 11.05 7.1Z" fill="#020831" /> </g> </svg>
