<svg xmlns="http://www.w3.org/2000/svg" width="32" height="32" viewBox="0 0 32 32" fill="none" > <mask id="mask0_49_229" maskUnits="userSpaceOnUse" x="0" y="0" width="32" height="32" > <rect width="32" height="32" fill="#D9D9D9" /> </mask> <g mask="url(#mask0_49_229)"> <path d="M26.4 17.2333L5.86667 25.8999C5.42222 26.0777 5 26.0388 4.6 25.7833C4.2 25.5277 4 25.1555 4 24.6666V7.33327C4 6.84439 4.2 6.47216 4.6 6.21661C5 5.96105 5.42222 5.92216 5.86667 6.09994L26.4 14.7666C26.9556 15.0111 27.2333 15.4222 27.2333 15.9999C27.2333 16.5777 26.9556 16.9888 26.4 17.2333ZM6.66667 22.6666L22.4667 15.9999L6.66667 9.33327V13.9999L14.6667 15.9999L6.66667 17.9999V22.6666Z" fill="white" /> </g> </svg>
